<svg width="100" height="100" viewBox="0 0 100 100" fill="none" xmlns="http://www.w3.org/2000/svg">
<rect width="100" height="100" rx="14" fill="white"/>
<path d="M34.6075 62.1667C35.1749 62.7326 35.1728 63.651 34.603 64.2144L29.5056 69.2542C28.2389 70.5061 27.7457 71.0021 27.3687 71.5559C27.0182 72.0705 26.7369 72.6279 26.5307 73.2133C26.5288 73.2186 26.527 73.2239 26.5251 73.2292C26.2818 73.9276 26.98 74.5938 27.6703 74.3252C28.2043 74.1174 28.7113 73.8481 29.1813 73.5237C29.6865 73.1751 30.1422 72.7327 31.2908 71.5973L36.6803 66.269C37.2466 65.7091 38.1599 65.7112 38.7237 66.2737C39.2911 66.84 39.289 67.7588 38.7188 68.3224L33.3288 73.6507C32.2505 74.7165 31.5919 75.3742 30.829 75.9007C30.1733 76.3532 29.4658 76.7279 28.7223 77.0172C27.8574 77.3538 26.9399 77.5318 25.4448 77.8299L24.7313 77.972C24.2704 78.0639 23.7935 77.9266 23.4522 77.6042C23.1109 77.2816 22.9478 76.8137 23.0148 76.3494L23.0836 75.8687C23.3211 74.2254 23.4613 73.2123 23.7981 72.2558C24.0873 71.4343 24.4826 70.6533 24.9735 69.9324C25.5449 69.0932 26.2794 68.3752 27.4676 67.2008L32.5657 62.162C33.1316 61.6026 34.0441 61.6047 34.6075 62.1667Z" fill="#4F67E0"/>
<path d="M75.8215 29.6226C76.0578 31.857 75.4955 34.6151 74.2339 37.6467C72.3145 42.259 72.3233 47.4974 74.2565 52.1039C76.4865 57.3978 76.4622 61.5864 74.1832 63.9073C71.3611 66.7806 65.8149 66.1277 58.9679 62.1287C58.3908 61.795 58.195 61.0483 58.5226 60.4606C58.8504 59.8732 59.5882 59.6743 60.1603 60.0076C65.8289 63.3196 70.5494 64.1502 72.4863 62.1779C73.9969 60.6338 73.8407 57.3126 72.051 53.065C70.7319 49.9335 66.5373 49.8014 64.1927 52.2642C63.9572 52.5116 63.7179 52.7584 63.4762 53.0045C52.9999 63.6773 41.2811 68.4689 36.8007 63.9073C34.5266 61.5913 34.4979 57.3973 36.728 52.1033C38.8067 47.1627 42.6357 41.7086 47.507 36.7482C48.6417 35.5978 49.8161 34.4823 50.9996 33.4465C51.4983 33.0084 52.2559 33.063 52.6912 33.5755C53.1216 34.0835 53.0677 34.8606 52.5639 35.2988C51.4245 36.2948 50.2952 37.3664 49.2047 38.4768C44.5436 43.2232 40.8948 48.408 38.9336 53.0697C37.1435 57.323 36.9863 60.6456 38.4977 62.1846C42.2053 65.9544 53.7434 59.4687 61.7793 51.2858C65.2787 47.7222 65.2788 42.0444 61.7793 38.4808C53.7384 30.2931 42.2001 23.8042 38.4977 27.5794C36.5612 29.5519 37.3833 34.3682 40.6405 40.1403C40.9679 40.7229 40.7721 41.4747 40.1953 41.8084C39.6232 42.1469 38.8847 41.9475 38.557 41.3601C34.62 34.3779 33.979 28.7252 36.8007 25.8514C37.955 24.681 39.5742 24.0935 41.5697 24.0934C43.5211 24.0935 45.8299 24.6557 48.3975 25.7762C53.2542 27.8979 58.6102 31.7924 63.4816 36.7528C66.1975 39.5184 71.0062 39.3684 72.4183 35.7618C72.9516 34.3993 73.3154 33.1175 73.4747 31.9646L75.8215 29.6226Z" fill="#4F67E0"/>
<path d="M55.4893 40.8028C57.6999 40.8028 59.495 42.6303 59.4951 44.8813C59.495 47.1324 57.7 48.9612 55.4893 48.9612C53.2787 48.961 51.4891 47.1317 51.4842 44.8807C51.4846 42.63 53.279 40.803 55.4893 40.8028Z" fill="#4F67E0"/>
<path d="M67.8733 26.6568C65.6825 27.0151 62.9818 28.0884 60.0283 29.8348C59.4512 30.1732 58.7172 29.9745 58.3847 29.3918C58.0524 28.8042 58.2484 28.057 58.8206 27.7184C62.9094 25.3079 66.5386 24.0835 69.4096 24.0835C69.7506 24.0835 70.0809 24.1009 70.4 24.1354L67.8733 26.6568Z" fill="#4F67E0"/>
<path d="M73.0568 22.8464C74.1876 21.7179 76.021 21.7179 77.1519 22.8464C78.2827 23.9748 78.2827 25.8044 77.1519 26.9329L75.1043 28.9762C74.3504 29.7285 73.1281 29.7285 72.3742 28.9762L71.0092 27.614C70.2553 26.8617 70.2553 25.6419 71.0092 24.8896L73.0568 22.8464Z" fill="#4F67E0"/>
<path d="M35.1066 76.6164C35.1066 77.1484 35.5388 77.5796 36.0718 77.5796H67.9243C68.4574 77.5796 68.8895 77.1484 68.8895 76.6164C68.8895 76.0844 68.4574 75.6532 67.9243 75.6532H36.0718C35.5388 75.6532 35.1066 76.0844 35.1066 76.6164Z" fill="#4F67E0"/>
<path d="M69.8548 76.6164C69.8548 77.1484 70.2869 77.5796 70.82 77.5796C71.3531 77.5796 71.7852 77.1484 71.7852 76.6164C71.7852 76.0844 71.3531 75.6532 70.82 75.6532C70.2869 75.6532 69.8548 76.0844 69.8548 76.6164Z" fill="#4F67E0"/>
</svg>
