<svg width="100" height="100" viewBox="0 0 100 100" fill="none" xmlns="http://www.w3.org/2000/svg">
<rect width="100" height="100" rx="14" fill="#4F67E0"/>
<path d="M31.1401 64.7738C31.8312 65.461 31.8287 66.5762 31.1346 67.2603L24.925 73.3801C23.3819 74.9003 22.7812 75.5026 22.3218 76.1751C21.8949 76.8 21.5522 77.4767 21.301 78.1876C21.2988 78.194 21.2965 78.2005 21.2943 78.2069C20.9979 79.0549 21.8484 79.8639 22.6893 79.5377C23.3398 79.2854 23.9574 78.9584 24.53 78.5645C25.1454 78.1413 25.7005 77.604 27.0998 76.2253L33.665 69.7552C34.355 69.0753 35.4676 69.0779 36.1543 69.761C36.8456 70.4486 36.8429 71.5643 36.1484 72.2487L29.5823 78.7187C28.2688 80.0129 27.4666 80.8115 26.5371 81.4509C25.7383 82.0003 24.8766 82.4553 23.9707 82.8066C22.9172 83.2153 21.7995 83.4315 19.9782 83.7935L19.109 83.966C18.5475 84.0776 17.9666 83.9109 17.5508 83.5194C17.1351 83.1276 16.9364 82.5595 17.018 81.9957L17.1018 81.412C17.3912 79.4165 17.5619 78.1864 17.9722 77.0249C18.3246 76.0274 18.8061 75.079 19.4041 74.2036C20.1002 73.1845 20.995 72.3127 22.4424 70.8867L28.6527 64.7682C29.3422 64.0889 30.4538 64.0915 31.1401 64.7738Z" fill="white"/>
<path d="M81.3462 25.2561C81.634 27.9692 80.9491 31.3183 79.4122 34.9996C77.074 40.6003 77.0847 46.9611 79.4398 52.5548C82.1563 58.983 82.1266 64.0692 79.3505 66.8874C75.9126 70.3765 69.1563 69.5837 60.8154 64.7277C60.1124 64.3226 59.8739 63.4158 60.273 62.7021C60.6723 61.9889 61.571 61.7473 62.268 62.1521C69.1734 66.1737 74.9239 67.1824 77.2833 64.7875C79.1235 62.9125 78.9332 58.8796 76.7531 53.7218C75.1461 49.9192 70.0364 49.7588 67.1802 52.7494C66.8933 53.0498 66.6018 53.3495 66.3074 53.6483C53.5453 66.6082 39.2697 72.4265 33.8118 66.8874C31.0416 64.0751 31.0065 58.9824 33.7233 52.554C36.2555 46.5547 40.9199 39.9319 46.854 33.9085C48.2362 32.5116 49.6669 31.1571 51.1086 29.8993C51.7162 29.3674 52.639 29.4336 53.1693 30.056C53.6936 30.6728 53.6279 31.6164 53.0142 32.1486C51.6262 33.358 50.2505 34.6591 48.922 36.0076C43.2441 41.771 38.7992 48.0669 36.41 53.7275C34.2294 58.8922 34.0379 62.9268 35.879 64.7956C40.3955 69.3732 54.4511 61.4977 64.2402 51.5614C68.5031 47.2341 68.5033 40.3396 64.2402 36.0124C54.4449 26.0702 40.3892 18.1908 35.879 22.775C33.52 25.1701 34.5215 31.0185 38.4894 38.0275C38.8882 38.7349 38.6497 39.6479 37.947 40.0531C37.2501 40.464 36.3505 40.222 35.9512 39.5087C31.1553 31.0303 30.3744 24.1663 33.8118 20.6767C35.2179 19.2555 37.1903 18.5421 39.6212 18.542C41.9984 18.5421 44.811 19.2248 47.9388 20.5854C53.8551 23.1618 60.3797 27.8908 66.3139 33.9141C69.6224 37.2724 75.4803 37.0902 77.2004 32.7107C77.8501 31.0563 78.2933 29.4998 78.4874 28.0998L81.3462 25.2561Z" fill="white"/>
<path d="M56.5779 38.8319C59.2708 38.832 61.4575 41.051 61.4577 43.7845C61.4576 46.518 59.2709 48.7386 56.5779 48.7386C53.885 48.7384 51.7049 46.5171 51.6989 43.7837C51.6994 41.0507 53.8853 38.8322 56.5779 38.8319Z" fill="white"/>
<path d="M71.6638 21.6547C68.995 22.0898 65.7051 23.3931 62.1072 25.5137C61.4042 25.9246 60.51 25.6833 60.105 24.9758C59.7001 24.2622 59.939 23.3549 60.636 22.9438C65.6169 20.0168 70.0379 18.5299 73.5353 18.5299C73.9508 18.5299 74.3531 18.551 74.7419 18.5929L71.6638 21.6547Z" fill="white"/>
<path d="M77.9782 17.0277C79.3558 15.6574 81.5893 15.6574 82.9668 17.0277C84.3444 18.398 84.3444 20.6197 82.9668 21.9899L80.4725 24.4711C79.5542 25.3846 78.0652 25.3846 77.1468 24.4711L75.484 22.817C74.5656 21.9035 74.5656 20.4223 75.484 19.5088L77.9782 17.0277Z" fill="white"/>
<path d="M31.7481 82.3199C31.7481 82.9659 32.2745 83.4895 32.9239 83.4895H71.726C72.3754 83.4895 72.9018 82.9659 72.9018 82.3199C72.9018 81.6739 72.3754 81.1503 71.726 81.1503H32.9239C32.2745 81.1503 31.7481 81.6739 31.7481 82.3199Z" fill="white"/>
<path d="M74.0776 82.3199C74.0776 82.9659 74.604 83.4895 75.2534 83.4895C75.9028 83.4895 76.4293 82.9659 76.4293 82.3199C76.4293 81.6739 75.9028 81.1503 75.2534 81.1503C74.604 81.1503 74.0776 81.6739 74.0776 82.3199Z" fill="white"/>
</svg>
