<svg width="100" height="100" viewBox="0 0 100 100" fill="none" xmlns="http://www.w3.org/2000/svg">
<path d="M45.6075 52.1667C46.1749 52.7326 46.1728 53.651 45.603 54.2144L40.5056 59.2542C39.2389 60.5061 38.7457 61.0021 38.3687 61.5559C38.0182 62.0705 37.7369 62.6279 37.5307 63.2133C37.5288 63.2186 37.527 63.2239 37.5251 63.2292C37.2818 63.9276 37.98 64.5938 38.6703 64.3252C39.2043 64.1174 39.7113 63.8481 40.1813 63.5237C40.6865 63.1751 41.1422 62.7327 42.2908 61.5973L47.6803 56.269C48.2466 55.7091 49.1599 55.7112 49.7237 56.2737C50.2911 56.84 50.289 57.7588 49.7188 58.3224L44.3288 63.6507C43.2505 64.7165 42.5919 65.3742 41.829 65.9007C41.1733 66.3532 40.4658 66.7279 39.7223 67.0172C38.8574 67.3538 37.9399 67.5318 36.4448 67.8299L35.7313 67.972C35.2704 68.0639 34.7935 67.9266 34.4522 67.6042C34.1109 67.2816 33.9478 66.8137 34.0148 66.3494L34.0836 65.8687C34.3211 64.2254 34.4613 63.2123 34.7981 62.2558C35.0873 61.4343 35.4826 60.6533 35.9735 59.9324C36.5449 59.0932 37.2794 58.3752 38.4676 57.2008L43.5657 52.162C44.1316 51.6026 45.0441 51.6047 45.6075 52.1667Z" fill="white"/>
<path d="M86.8215 19.6226C87.0578 21.857 86.4955 24.6151 85.2339 27.6467C83.3145 32.259 83.3233 37.4974 85.2565 42.1039C87.4865 47.3978 87.4622 51.5864 85.1832 53.9073C82.3611 56.7806 76.8149 56.1277 69.9679 52.1287C69.3908 51.795 69.195 51.0483 69.5226 50.4606C69.8504 49.8732 70.5882 49.6743 71.1603 50.0076C76.8289 53.3196 81.5494 54.1502 83.4863 52.1779C84.9969 50.6338 84.8407 47.3126 83.051 43.065C81.7319 39.9335 77.5373 39.8014 75.1927 42.2642C74.9572 42.5116 74.7179 42.7584 74.4762 43.0045C63.9999 53.6773 52.2811 58.4689 47.8007 53.9073C45.5266 51.5913 45.4979 47.3973 47.728 42.1033C49.8067 37.1627 53.6357 31.7086 58.507 26.7482C59.6417 25.5978 60.8161 24.4823 61.9996 23.4465C62.4983 23.0084 63.2559 23.063 63.6912 23.5755C64.1216 24.0835 64.0677 24.8606 63.5639 25.2988C62.4245 26.2948 61.2952 27.3664 60.2047 28.4768C55.5436 33.2232 51.8948 38.408 49.9336 43.0697C48.1435 47.323 47.9863 50.6456 49.4977 52.1846C53.2053 55.9544 64.7434 49.4687 72.7793 41.2858C76.2787 37.7222 76.2788 32.0444 72.7793 28.4808C64.7384 20.2931 53.2001 13.8042 49.4977 17.5794C47.5612 19.5519 48.3833 24.3682 51.6405 30.1403C51.9679 30.7229 51.7721 31.4747 51.1953 31.8084C50.6232 32.1469 49.8847 31.9475 49.557 31.3601C45.62 24.3779 44.979 18.7252 47.8007 15.8514C48.955 14.681 50.5742 14.0935 52.5697 14.0934C54.5211 14.0935 56.8299 14.6557 59.3975 15.7762C64.2542 17.8979 69.6102 21.7924 74.4816 26.7528C77.1975 29.5184 82.0062 29.3684 83.4183 25.7618C83.9516 24.3993 84.3154 23.1175 84.4747 21.9646L86.8215 19.6226Z" fill="white"/>
<path d="M66.4893 30.8028C68.6999 30.8028 70.495 32.6303 70.4951 34.8813C70.495 37.1324 68.7 38.9612 66.4893 38.9612C64.2787 38.961 62.4891 37.1317 62.4842 34.8807C62.4846 32.63 64.279 30.803 66.4893 30.8028Z" fill="white"/>
<path d="M78.8733 16.6568C76.6825 17.0151 73.9818 18.0884 71.0283 19.8348C70.4512 20.1732 69.7172 19.9745 69.3847 19.3918C69.0524 18.8042 69.2484 18.057 69.8206 17.7184C73.9094 15.3079 77.5386 14.0835 80.4096 14.0835C80.7506 14.0835 81.0809 14.1009 81.4 14.1354L78.8733 16.6568Z" fill="white"/>
<path d="M84.0568 12.8464C85.1876 11.7179 87.021 11.7179 88.1519 12.8464C89.2827 13.9748 89.2827 15.8044 88.1519 16.9329L86.1043 18.9762C85.3504 19.7285 84.1281 19.7285 83.3742 18.9762L82.0092 17.614C81.2553 16.8617 81.2553 15.6419 82.0092 14.8896L84.0568 12.8464Z" fill="white"/>
<path d="M46.1066 66.6164C46.1066 67.1484 46.5388 67.5796 47.0718 67.5796H78.9243C79.4574 67.5796 79.8895 67.1484 79.8895 66.6164C79.8895 66.0844 79.4574 65.6532 78.9243 65.6532H47.0718C46.5388 65.6532 46.1066 66.0844 46.1066 66.6164Z" fill="white"/>
<path d="M80.8548 66.6164C80.8548 67.1484 81.2869 67.5796 81.82 67.5796C82.3531 67.5796 82.7852 67.1484 82.7852 66.6164C82.7852 66.0844 82.3531 65.6532 81.82 65.6532C81.2869 65.6532 80.8548 66.0844 80.8548 66.6164Z" fill="white"/>
<path d="M12 87V75H22.5686V76.5H24.0784V82.5H22.5686V84H15.0196V87H12ZM21.0588 81V78H15.0196V81H21.0588Z" fill="white"/>
<path d="M34.6471 87V84H28.6078V87H25.5882V76.5H27.098V75H36.1569V76.5H37.6667V87H34.6471ZM34.6471 81V78H28.6078V81H34.6471Z" fill="white"/>
<path d="M39.1765 87V75H49.7451V76.5H51.2549V82.5H49.7451V84H42.1961V87H39.1765ZM48.2353 81V78H42.1961V81H48.2353Z" fill="white"/>
<path d="M52.7647 87V75H64.8431V78H55.7843V79.5H63.3333V82.5H55.7843V84H64.8431V87H52.7647Z" fill="white"/>
<path d="M75.4118 87V84H69.3726V87H66.3529V75H76.9216V76.5H78.4314V81H76.9216V82.5H78.4314V87H75.4118ZM75.4118 81V78H69.3726V81H75.4118Z" fill="white"/>
<path d="M79.9412 87V84H84.4706V82.5H81.451V81H79.9412V78H81.451V76.5H89V79.5H84.4706V81H87.4902V82.5H89V85.5H87.4902V87H79.9412Z" fill="white"/>
<path d="M12 24.0377V12H25V15.0094H15.25V16.5142H23.375V19.5236H15.25V24.0377H12Z" fill="white"/>
<path d="M12 39.3585V36.3491H16.875V30.3302H12V27.3208H25V30.3302H20.125V36.3491H25V39.3585H12Z" fill="white"/>
<path d="M21.75 54.6792V53.1745H20.125V51.6698H18.5V50.1651H16.875V48.6604H15.25V54.6792H12V42.6415H15.25V44.1462H16.875V45.6509H18.5V47.1557H20.125V48.6604H21.75V42.6415H25V54.6792H21.75Z" fill="white"/>
<path d="M12 70V57.9623H25V60.9717H15.25V62.4764H23.375V65.4858H15.25V66.9906H25V70H12Z" fill="white"/>
</svg>
