<svg width="100" height="100" viewBox="0 0 100 100" fill="none" xmlns="http://www.w3.org/2000/svg">
<path d="M24.7831 69.5536C25.7011 70.4631 25.6979 71.939 24.7758 72.8445L16.5272 80.9443C14.4774 82.9563 13.6794 83.7534 13.0693 84.6435C12.5022 85.4705 12.047 86.3663 11.7133 87.3071C11.7103 87.3156 11.7073 87.3241 11.7043 87.3327C11.3106 88.4551 12.4404 89.5257 13.5574 89.094C14.4215 88.7601 15.2419 88.3273 16.0025 87.806C16.82 87.2458 17.5574 86.5347 19.4161 84.71L28.1371 76.1466C29.0536 75.2467 30.5315 75.2501 31.4438 76.1542C32.362 77.0643 32.3585 78.541 31.4359 79.4468L22.7138 88.0101C20.9691 89.7229 19.9033 90.78 18.6687 91.6261C17.6077 92.3533 16.4629 92.9556 15.2596 93.4206C13.8601 93.9614 12.3754 94.2476 9.95616 94.7267L8.80151 94.955C8.05568 95.1027 7.28398 94.8821 6.73167 94.3639C6.17943 93.8454 5.91555 93.0934 6.02393 92.3472L6.13528 91.5747C6.51966 88.9336 6.74647 87.3055 7.29146 85.7682C7.75951 84.448 8.39915 83.1929 9.19351 82.0342C10.1181 80.6854 11.3067 79.5315 13.2295 77.6442L21.479 69.5461C22.3948 68.6471 23.8714 68.6505 24.7831 69.5536Z" fill="white"/>
<path d="M91.4748 17.2507C91.8571 20.8416 90.9473 25.2743 88.9057 30.1465C85.7998 37.5592 85.8141 45.978 88.9424 53.3813C92.5509 61.8893 92.5115 68.621 88.8238 72.351C84.257 76.9689 75.2823 75.9195 64.2026 69.4926C63.2687 68.9563 62.9519 67.7562 63.4821 66.8117C64.0124 65.8677 65.2063 65.5479 66.1321 66.0837C75.3049 71.4064 82.9436 72.7414 86.0778 69.5717C88.5223 67.0901 88.2695 61.7524 85.3735 54.926C83.2389 49.893 76.4513 49.6808 72.6573 53.6389C72.2762 54.0365 71.889 54.4331 71.4979 54.8287C54.5453 71.9814 35.5821 79.6821 28.332 72.351C24.6522 68.6289 24.6056 61.8885 28.2145 53.3803C31.5782 45.4401 37.7742 36.6745 45.6568 28.7024C47.4929 26.8535 49.3933 25.0609 51.3085 23.3961C52.1155 22.6921 53.3414 22.7798 54.0458 23.6035C54.7423 24.4199 54.655 25.6687 53.8398 26.3731C51.996 27.9738 50.1686 29.6959 48.4039 31.4806C40.8615 39.1087 34.9571 47.4415 31.7834 54.9334C28.8868 61.7691 28.6324 67.1091 31.078 69.5824C37.0777 75.641 55.7484 65.2175 68.7519 52.0665C74.4146 46.3392 74.4148 37.2142 68.7519 31.487C55.7403 18.3281 37.0693 7.89964 31.078 13.9669C27.9445 17.1369 29.2748 24.8775 34.5456 34.1541C35.0754 35.0903 34.7585 36.2987 33.8251 36.835C32.8993 37.3789 31.7044 37.0585 31.174 36.1145C24.8033 24.893 23.766 15.8083 28.332 11.1897C30.1998 9.30872 32.82 8.36451 36.0491 8.36447C39.2068 8.36451 42.9429 9.26814 47.0978 11.0689C54.9567 14.4788 63.6238 20.7378 71.5065 28.7099C75.9014 33.1546 83.6828 32.9135 85.9678 27.1171C86.8308 24.9275 87.4194 22.8674 87.6773 21.0145L91.4748 17.2507Z" fill="white"/>
<path d="M58.5736 35.2187C62.1508 35.2188 65.0555 38.1558 65.0557 41.7736C65.0556 45.3914 62.1509 48.3304 58.5736 48.3305C54.9965 48.3302 52.1005 45.3903 52.0926 41.7725C52.0933 38.1553 54.9969 35.2191 58.5736 35.2187Z" fill="white"/>
<path d="M78.6131 12.4842C75.068 13.06 70.6978 14.7849 65.9185 17.5917C64.9847 18.1355 63.7969 17.8161 63.2588 16.8798C62.7211 15.9353 63.0384 14.7345 63.9642 14.1903C70.5807 10.3163 76.4534 8.34844 81.0992 8.34844C81.651 8.34844 82.1854 8.37638 82.7019 8.43181L78.6131 12.4842Z" fill="white"/>
<path d="M87.001 6.36021C88.8308 4.5466 91.7977 4.5466 93.6276 6.36021C95.4575 8.17381 95.4575 11.1143 93.6276 12.9279L90.3143 16.2117C89.0943 17.4208 87.1164 17.4208 85.8965 16.2117L83.6876 14.0225C82.4677 12.8134 82.4677 10.8531 83.6876 9.64403L87.001 6.36021Z" fill="white"/>
<path d="M25.5907 92.7763C25.5907 93.6313 26.29 94.3243 27.1526 94.3243H78.6957C79.5583 94.3243 80.2576 93.6313 80.2576 92.7763C80.2576 91.9214 79.5583 91.2283 78.6957 91.2283H27.1526C26.29 91.2283 25.5907 91.9214 25.5907 92.7763Z" fill="white"/>
<path d="M81.8195 92.7763C81.8195 93.6313 82.5188 94.3243 83.3814 94.3243C84.2441 94.3243 84.9433 93.6313 84.9433 92.7763C84.9433 91.9214 84.2441 91.2283 83.3814 91.2283C82.5188 91.2283 81.8195 91.9214 81.8195 92.7763Z" fill="white"/>
</svg>
