<svg width="622" height="450" viewBox="0 0 622 450" fill="none" xmlns="http://www.w3.org/2000/svg">
<path d="M484.917 151L410.917 225L484.917 299C494.583 308.667 494.583 324.667 484.917 334.333C479.917 339.333 473.583 341.667 467.25 341.667C460.917 341.667 454.583 339.333 449.583 334.333L375.583 260.333L301.583 334.333C296.583 339.333 290.25 341.667 283.917 341.667C277.583 341.667 271.25 339.333 266.25 334.333C256.583 324.667 256.583 308.667 266.25 299L340.25 225L266.25 151C256.583 141.333 256.583 125.333 266.25 115.667C275.917 106 291.917 106 301.583 115.667L375.583 189.667L449.583 115.667C459.25 106 475.25 106 484.917 115.667C494.583 125.333 494.583 141.333 484.917 151ZM621.25 58.3333V391.667C621.25 423.667 595.25 450 562.917 450H165.25C144.916 450 126.583 439.667 115.917 422.667L6.25 247C-2.08333 233.667 -2.08333 216.333 6.25 202.667L115.917 27.3333C126.583 10.3333 145.25 0 165.25 0H563.25C595.25 0 621.583 26.3333 621.583 58.3333H621.25ZM571.25 58.3333C571.25 53.6667 567.583 50 562.917 50H165.25C162.25 50 159.583 51.3333 158.25 54L51.25 225L158.25 396C159.917 398.333 162.583 400 165.25 400H563.25C567.917 400 571.583 396.333 571.583 391.667V58.3333H571.25Z" fill="black"/>
</svg>
