<svg width="645" height="403" viewBox="0 0 645 403" fill="none" xmlns="http://www.w3.org/2000/svg">
<path fill-rule="evenodd" clip-rule="evenodd" d="M0.887501 352.239C1.77188 325.901 0 84.0199 0 54.3167C0 24.6136 25.4875 0.754245 56.2281 0.16987C86.9687 -0.41763 228.569 0.707361 228.569 0.707361C232.016 0.732361 236.763 2.75736 239.194 5.22923L296.972 63.8886C300.609 67.5855 307.759 70.4261 312.931 70.2324C312.931 70.2324 452.475 64.9042 482.562 64.9042C512.65 64.9042 535.797 91.5292 535.797 116.926C535.797 142.323 537.325 163.307 537.325 163.307C537.368 164.118 537.575 164.911 537.933 165.64C538.292 166.368 538.794 167.016 539.41 167.545C540.026 168.073 540.743 168.471 541.518 168.714C542.292 168.958 543.108 169.042 543.916 168.96C543.916 168.96 546.603 167.754 591.172 168.648C635.744 169.548 657.191 211.498 635.744 244.454C614.297 277.411 559.994 357.879 547.897 374.51C535.797 391.142 523.853 402.048 500.791 400.301C477.728 398.551 85.4875 402.842 55.9156 402.842C26.3375 402.842 0.00312626 378.576 0.887501 352.239ZM57.1563 59.4011L54.9375 295.554C54.9063 299.032 56.3562 299.46 58.1812 296.542C58.1812 296.542 114.972 205.454 125.441 192.879C135.909 180.301 149.753 168.964 170.691 168.964C191.628 168.964 481.094 167.045 481.094 167.045C481.094 167.045 484.759 122.71 479.888 118.21C475.016 113.71 286.706 116.867 286.706 116.867C283.272 116.923 278.397 115.042 275.869 112.667L215.284 55.7136C212.759 53.3386 207.909 51.4449 204.453 51.4824L63.4719 53.0605C61.8009 53.088 60.2066 53.7662 59.0278 54.9509C57.849 56.1355 57.1787 57.7332 57.1594 59.4042L57.1563 59.4011ZM86.3125 351.692L494.325 352.173C497.8 352.176 502.2 349.873 504.181 347.026L589.916 223.792C591.888 220.957 590.7 218.636 587.244 218.626L174.625 217.789C171.197 217.779 166.831 220.107 164.934 222.982L83.4781 346.476C81.575 349.36 82.8531 351.689 86.3156 351.695L86.3125 351.692Z" fill="black"/>
</svg>
